<?xml version="1.0" encoding="UTF-8" standalone="no"?>
<!-- Created with Inkscape (http://www.inkscape.org/) -->

<svg
   xmlns:dc="http://purl.org/dc/elements/1.1/"
   xmlns:cc="http://creativecommons.org/ns#"
   xmlns:rdf="http://www.w3.org/1999/02/22-rdf-syntax-ns#"
   xmlns:svg="http://www.w3.org/2000/svg"
   xmlns="http://www.w3.org/2000/svg"
   xmlns:sodipodi="http://sodipodi.sourceforge.net/DTD/sodipodi-0.dtd"
   xmlns:inkscape="http://www.inkscape.org/namespaces/inkscape"
   width="67.448448mm"
   height="67.448441mm"
   viewBox="0 0 67.448448 67.448441"
   version="1.1"
   id="svg2725"
   inkscape:version="0.92.2pre0 (973e216, 2017-07-25)"
   sodipodi:docname="logo.svg">
  <defs
     id="defs2719" />
  <sodipodi:namedview
     id="base"
     pagecolor="#ffffff"
     bordercolor="#666666"
     borderopacity="1.0"
     inkscape:pageopacity="0.0"
     inkscape:pageshadow="2"
     inkscape:zoom="0.35"
     inkscape:cx="-395.3955"
     inkscape:cy="7.4616347"
     inkscape:document-units="mm"
     inkscape:current-layer="layer1"
     showgrid="false"
     fit-margin-top="0"
     fit-margin-left="0"
     fit-margin-right="0"
     fit-margin-bottom="0"
     inkscape:window-width="1366"
     inkscape:window-height="704"
     inkscape:window-x="0"
     inkscape:window-y="0"
     inkscape:window-maximized="1" />
  <metadata
     id="metadata2722">
    <rdf:RDF>
      <cc:Work
         rdf:about="">
        <dc:format>image/svg+xml</dc:format>
        <dc:type
           rdf:resource="http://purl.org/dc/dcmitype/StillImage" />
        <dc:title></dc:title>
      </cc:Work>
    </rdf:RDF>
  </metadata>
  <g
     inkscape:label="Camada 1"
     inkscape:groupmode="layer"
     id="layer1"
     transform="translate(-45.650774,-83.359118)">
    <g
       transform="matrix(0.4585485,0,0,0.4585485,133.22925,-105.34294)"
       inkscape:export-ydpi="28.319849"
       inkscape:export-xdpi="28.319849"
       id="g886">
      <rect
         ry="28.053389"
         y="411.52039"
         x="-190.99065"
         height="147.09119"
         width="147.09119"
         id="rect862"
         style="fill:#e74c3c;fill-opacity:1;stroke:none;stroke-width:0.37529081;stroke-opacity:1" />
      <g
         transform="translate(-188.00421,0.97736304)"
         id="g884">
        <text
           xml:space="preserve"
           style="font-style:normal;font-weight:normal;font-size:16.88284874px;line-height:1.25;font-family:sans-serif;letter-spacing:0px;word-spacing:0px;fill:#ffffff;fill-opacity:1;stroke:none;stroke-width:0.42207119"
           x="19.626236"
           y="483.6413"
           id="text868"><tspan
             sodipodi:role="line"
             id="tspan864"
             x="19.626236"
             y="483.6413"
             style="font-style:normal;font-variant:normal;font-weight:normal;font-stretch:normal;font-family:'DejaVu Sans Mono';-inkscape-font-specification:'DejaVu Sans Mono';fill:#ffffff;stroke-width:0.42207119">DEV</tspan><tspan
             sodipodi:role="line"
             x="19.626236"
             y="505.16867"
             style="font-style:normal;font-variant:normal;font-weight:normal;font-stretch:normal;font-family:'DejaVu Sans Mono';-inkscape-font-specification:'DejaVu Sans Mono';fill:#ffffff;stroke-width:0.42207119"
             id="tspan866">Alagoinhas</tspan></text>
        <g
           id="g874"
           transform="matrix(0.99122646,0,0,0.99122646,-136.63395,160.26649)">
          <path
             style="fill:#ffffff;stroke:#ffffff;stroke-width:0.02646136px;stroke-linecap:butt;stroke-linejoin:miter;stroke-opacity:1"
             d="m 233.72857,297.60931 -0.44747,32.65054 18.23988,0.94308 -0.3413,-9.52726 -12.08154,-9.04404 -0.44746,-11.95654 z"
             id="path870"
             inkscape:connector-curvature="0"
             sodipodi:nodetypes="ccccccc" />
          <path
             inkscape:connector-curvature="0"
             style="fill:#ffffff;stroke:#ffffff;stroke-width:0.02682556px;stroke-linecap:butt;stroke-linejoin:miter;stroke-opacity:1"
             d="m 233.72857,297.60931 -8.50753,2.75921 -0.22995,7.81771 -3.4112,-0.0117 0.10835,-5.69058 -2.22201,-1.40908 -6.36337,2.10434 -0.19433,6.5128 -1.95103,-0.0542 v -4.60661 l -1.40908,-0.70454 -6.04366,1.66528 -0.35146,4.51304 -1.64778,0.13082 0.18835,-3.69847 -0.72811,-0.51733 -6.19588,1.13966 -0.55887,23.43135 3.24631,-0.0608 0.26171,-8.06449 c 0.51859,-5.70807 5.97623,-3.64806 5.30784,0 l -0.0517,7.96122 5.70614,-0.10683 0.3469,-9.40325 c 0.58879,-5.68843 6.78518,-3.42166 6.02632,0.20109 l -0.067,9.08412 5.47907,-0.10259 0.39694,-9.99755 c 0.70627,-6.35474 8.13903,-4.06135 7.22875,0 l -0.0782,9.8563 5.25456,-0.0984 z"
             id="path872"
             sodipodi:nodetypes="cccccccccccccccccccccccccccccccc" />
        </g>
        <text
           xml:space="preserve"
           style="font-style:normal;font-weight:normal;font-size:71.69611359px;line-height:1.25;font-family:sans-serif;letter-spacing:0px;word-spacing:0px;fill:#ffffff;fill-opacity:1;stroke:none;stroke-width:1.79240286"
           x="-2.2324064"
           y="505.52576"
           id="text878"><tspan
             sodipodi:role="line"
             id="tspan876"
             x="-2.2324064"
             y="505.52576"
             style="font-style:normal;font-variant:normal;font-weight:normal;font-stretch:normal;font-family:Ubuntu;-inkscape-font-specification:Ubuntu;fill:#ffffff;stroke-width:1.79240286">{</tspan></text>
        <text
           id="text882"
           y="505.52576"
           x="119.47593"
           style="font-style:normal;font-weight:normal;font-size:71.69611359px;line-height:1.25;font-family:sans-serif;letter-spacing:0px;word-spacing:0px;fill:#ffffff;fill-opacity:1;stroke:none;stroke-width:1.79240286"
           xml:space="preserve"><tspan
             style="font-style:normal;font-variant:normal;font-weight:normal;font-stretch:normal;font-family:Ubuntu;-inkscape-font-specification:Ubuntu;fill:#ffffff;stroke-width:1.79240286"
             y="505.52576"
             x="119.47593"
             id="tspan880"
             sodipodi:role="line">}</tspan></text>
      </g>
    </g>
    <g
       id="g3324"
       inkscape:export-xdpi="28.319849"
       inkscape:export-ydpi="28.319849"
       transform="matrix(0.4585485,0,0,0.4585485,133.22925,-105.34294)">
      <path
         style="fill:#e74c3c;fill-opacity:1;stroke:none;stroke-width:0.37529081;stroke-opacity:1"
         d="m -162.93726,411.52039 h 90.984412 c 15.541577,0 28.053388,12.51181 28.053388,28.05338 v 90.98441 c 0,15.54158 -12.511811,28.05339 -28.053388,28.05339 h -90.984412 c -15.54158,0 -28.05339,-12.51181 -28.05339,-28.05339 v -90.98441 c 0,-15.54157 12.51181,-28.05338 28.05339,-28.05338 z"
         id="rect3300"
         inkscape:connector-curvature="0" />
      <g
         id="g3322"
         transform="translate(-188.00421,0.97736304)">
        <g
           aria-label="DEV
Alagoinhas"
           style="font-style:normal;font-weight:normal;font-size:16.88284874px;line-height:1.25;font-family:sans-serif;letter-spacing:0px;word-spacing:0px;fill:#ffffff;fill-opacity:1;stroke:none;stroke-width:0.42207119"
           id="text3306">
          <path
             d="m 23.220436,482.27286 q 2.102113,0 2.934714,-1.03044 0.832602,-1.0387 0.832602,-3.74259 0,-2.72862 -0.832602,-3.75907 -0.824358,-1.03869 -2.934714,-1.03869 h -0.791383 v 9.57079 z m 0.03297,-10.93923 q 2.819304,0 4.154764,1.50033 1.33546,1.50034 1.33546,4.66587 0,3.14905 -1.33546,4.64938 -1.33546,1.49209 -4.154764,1.49209 h -2.497804 v -12.30767 z"
             style="font-style:normal;font-variant:normal;font-weight:normal;font-stretch:normal;font-family:'DejaVu Sans Mono';-inkscape-font-specification:'DejaVu Sans Mono';fill:#ffffff;stroke-width:0.42207119"
             id="path3427"
             inkscape:connector-curvature="0" />
          <path
             d="m 31.40631,471.33363 h 7.30381 v 1.40141 h -5.638607 v 3.64366 h 5.3913 v 1.40141 h -5.3913 v 4.45978 h 5.795235 v 1.40141 H 31.40631 Z"
             style="font-style:normal;font-variant:normal;font-weight:normal;font-stretch:normal;font-family:'DejaVu Sans Mono';-inkscape-font-specification:'DejaVu Sans Mono';fill:#ffffff;stroke-width:0.42207119"
             id="path3429"
             inkscape:connector-curvature="0" />
          <path
             d="m 45.016458,482.23989 2.893496,-10.90626 h 1.722908 l -3.602444,12.30767 h -2.019677 l -3.602443,-12.30767 h 1.722907 z"
             style="font-style:normal;font-variant:normal;font-weight:normal;font-stretch:normal;font-family:'DejaVu Sans Mono';-inkscape-font-specification:'DejaVu Sans Mono';fill:#ffffff;stroke-width:0.42207119"
             id="path3431"
             inkscape:connector-curvature="0" />
          <path
             d="m 24.70428,494.32837 -1.755882,6.29809 h 3.511765 z m -1.005716,-1.46736 h 2.019676 l 3.767316,12.30767 h -1.722908 l -0.906794,-3.20676 h -4.311391 l -0.890307,3.20676 h -1.722908 z"
             style="font-style:normal;font-variant:normal;font-weight:normal;font-stretch:normal;font-family:'DejaVu Sans Mono';-inkscape-font-specification:'DejaVu Sans Mono';fill:#ffffff;stroke-width:0.42207119"
             id="path3433"
             inkscape:connector-curvature="0" />
          <path
             d="m 35.049971,501.82178 q 0,1.02221 0.370961,1.54155 0.379205,0.51935 1.112884,0.51935 h 1.772369 v 1.286 h -1.920754 q -1.36019,0 -2.110356,-0.87382 -0.741922,-0.87382 -0.741922,-2.47308 v -8.38372 h -2.431856 v -1.18707 h 3.948674 z"
             style="font-style:normal;font-variant:normal;font-weight:normal;font-stretch:normal;font-family:'DejaVu Sans Mono';-inkscape-font-specification:'DejaVu Sans Mono';fill:#ffffff;stroke-width:0.42207119"
             id="path3435"
             inkscape:connector-curvature="0" />
          <path
             d="m 45.725406,500.52754 h -0.502859 q -1.327216,0 -2.003189,0.46989 -0.66773,0.46164 -0.66773,1.38492 0,0.8326 0.502858,1.29424 0.502859,0.46164 1.393165,0.46164 1.253024,0 1.970215,-0.86558 0.717192,-0.87382 0.725435,-2.40712 v -0.33799 z m 2.942957,-0.62651 v 5.26765 h -1.525062 v -1.36844 q -0.486371,0.82436 -1.228293,1.22005 -0.733678,0.38745 -1.788857,0.38745 -1.409651,0 -2.250496,-0.79138 -0.840845,-0.79963 -0.840845,-2.13509 0,-1.54155 1.030447,-2.34118 1.038691,-0.79962 3.04188,-0.79962 h 2.036164 v -0.23907 q -0.0082,-1.10464 -0.560563,-1.59925 -0.55232,-0.50286 -1.764126,-0.50286 -0.774896,0 -1.56628,0.22258 -0.791383,0.22257 -1.541549,0.65124 v -1.51682 q 0.840845,-0.3215 1.607498,-0.47813 0.774896,-0.16487 1.500331,-0.16487 1.145857,0 1.953728,0.33799 0.816114,0.33798 1.318973,1.01396 0.313256,0.41218 0.445153,1.0222 0.131897,0.60178 0.131897,1.81359 z"
             style="font-style:normal;font-variant:normal;font-weight:normal;font-stretch:normal;font-family:'DejaVu Sans Mono';-inkscape-font-specification:'DejaVu Sans Mono';fill:#ffffff;stroke-width:0.42207119"
             id="path3437"
             inkscape:connector-curvature="0" />
          <path
             d="m 57.167492,500.47808 q 0,-1.70642 -0.560564,-2.58848 -0.552319,-0.89031 -1.615741,-0.89031 -1.112883,0 -1.698177,0.89031 -0.585294,0.88206 -0.585294,2.58848 0,1.70642 0.585294,2.60497 0.593538,0.89031 1.714664,0.89031 1.046935,0 1.599254,-0.89855 0.560564,-0.89855 0.560564,-2.59673 z m 1.516818,4.09706 q 0,2.07738 -0.980986,3.14905 -0.980985,1.07166 -2.885252,1.07166 -0.626512,0 -1.310729,-0.11541 -0.684217,-0.11541 -1.368434,-0.33799 v -1.50033 q 0.807871,0.37921 1.467357,0.56057 0.659486,0.18135 1.211806,0.18135 1.228293,0 1.788856,-0.66773 0.560564,-0.66773 0.560564,-2.1186 v -0.0659 -1.03045 q -0.362718,0.7749 -0.98923,1.1541 -0.626512,0.3792 -1.525062,0.3792 -1.615741,0 -2.58024,-1.29424 -0.964498,-1.29424 -0.964498,-3.4623 0,-2.1763 0.964498,-3.47055 0.964499,-1.29424 2.58024,-1.29424 0.890307,0 1.508575,0.35448 0.618269,0.35447 1.005717,1.09639 v -1.19532 h 1.516818 z"
             style="font-style:normal;font-variant:normal;font-weight:normal;font-stretch:normal;font-family:'DejaVu Sans Mono';-inkscape-font-specification:'DejaVu Sans Mono';fill:#ffffff;stroke-width:0.42207119"
             id="path3439"
             inkscape:connector-curvature="0" />
          <path
             d="m 65.328636,496.99929 q -1.154101,0 -1.747639,0.89855 -0.593538,0.89855 -0.593538,2.66268 0,1.75588 0.593538,2.66267 0.593538,0.89855 1.747639,0.89855 1.162344,0 1.755882,-0.89855 0.593537,-0.90679 0.593537,-2.66267 0,-1.76413 -0.593537,-2.66268 -0.593538,-0.89855 -1.755882,-0.89855 z m 0,-1.286 q 1.920753,0 2.934714,1.24478 1.022203,1.24478 1.022203,3.60245 0,2.3659 -1.01396,3.61068 -1.01396,1.23654 -2.942957,1.23654 -1.920754,0 -2.934714,-1.23654 -1.01396,-1.24478 -1.01396,-3.61068 0,-2.35767 1.01396,-3.60245 1.01396,-1.24478 2.934714,-1.24478 z"
             style="font-style:normal;font-variant:normal;font-weight:normal;font-stretch:normal;font-family:'DejaVu Sans Mono';-inkscape-font-specification:'DejaVu Sans Mono';fill:#ffffff;stroke-width:0.42207119"
             id="path3441"
             inkscape:connector-curvature="0" />
          <path
             d="m 72.517037,495.93587 h 3.882726 v 8.05397 h 3.008906 v 1.17884 h -7.534631 v -1.17884 h 3.008906 v -6.87514 h -2.365907 z m 2.365907,-3.5942 h 1.516819 v 1.92075 h -1.516819 z"
             style="font-style:normal;font-variant:normal;font-weight:normal;font-stretch:normal;font-family:'DejaVu Sans Mono';-inkscape-font-specification:'DejaVu Sans Mono';fill:#ffffff;stroke-width:0.42207119"
             id="path3443"
             inkscape:connector-curvature="0" />
          <path
             d="m 89.226768,499.44763 v 5.72105 h -1.525062 v -5.72105 q 0,-1.24478 -0.43691,-1.83007 -0.436909,-0.5853 -1.368434,-0.5853 -1.063421,0 -1.640472,0.75841 -0.568807,0.75017 -0.568807,2.15982 v 5.21819 h -1.516818 v -9.23281 h 1.516818 v 1.38492 q 0.403936,-0.79138 1.096396,-1.19532 0.692461,-0.41218 1.640472,-0.41218 1.409652,0 2.102113,0.93153 0.700704,0.92328 0.700704,2.80281 z"
             style="font-style:normal;font-variant:normal;font-weight:normal;font-stretch:normal;font-family:'DejaVu Sans Mono';-inkscape-font-specification:'DejaVu Sans Mono';fill:#ffffff;stroke-width:0.42207119"
             id="path3445"
             inkscape:connector-curvature="0" />
          <path
             d="m 99.382858,499.44763 v 5.72105 h -1.525062 v -5.72105 q 0,-1.24478 -0.43691,-1.83007 -0.43691,-0.5853 -1.368434,-0.5853 -1.063422,0 -1.640472,0.75841 -0.568807,0.75017 -0.568807,2.15982 v 5.21819 h -1.516818 v -12.82701 h 1.516818 v 4.97912 q 0.403935,-0.79138 1.096396,-1.19532 0.692461,-0.41218 1.640472,-0.41218 1.409652,0 2.102113,0.93153 0.700704,0.92328 0.700704,2.80281 z"
             style="font-style:normal;font-variant:normal;font-weight:normal;font-stretch:normal;font-family:'DejaVu Sans Mono';-inkscape-font-specification:'DejaVu Sans Mono';fill:#ffffff;stroke-width:0.42207119"
             id="path3447"
             inkscape:connector-curvature="0" />
          <path
             d="m 106.66194,500.52754 h -0.50286 q -1.32722,0 -2.00319,0.46989 -0.66773,0.46164 -0.66773,1.38492 0,0.8326 0.50286,1.29424 0.50286,0.46164 1.39316,0.46164 1.25303,0 1.97022,-0.86558 0.71719,-0.87382 0.72543,-2.40712 v -0.33799 z m 2.94296,-0.62651 v 5.26765 h -1.52507 v -1.36844 q -0.48637,0.82436 -1.22829,1.22005 -0.73368,0.38745 -1.78886,0.38745 -1.40965,0 -2.25049,-0.79138 -0.84085,-0.79963 -0.84085,-2.13509 0,-1.54155 1.03045,-2.34118 1.03869,-0.79962 3.04188,-0.79962 h 2.03616 v -0.23907 q -0.008,-1.10464 -0.56056,-1.59925 -0.55232,-0.50286 -1.76412,-0.50286 -0.7749,0 -1.56628,0.22258 -0.79139,0.22257 -1.54155,0.65124 v -1.51682 q 0.84084,-0.3215 1.60749,-0.47813 0.7749,-0.16487 1.50034,-0.16487 1.14585,0 1.95372,0.33799 0.81612,0.33798 1.31898,1.01396 0.31325,0.41218 0.44515,1.0222 0.1319,0.60178 0.1319,1.81359 z"
             style="font-style:normal;font-variant:normal;font-weight:normal;font-stretch:normal;font-family:'DejaVu Sans Mono';-inkscape-font-specification:'DejaVu Sans Mono';fill:#ffffff;stroke-width:0.42207119"
             id="path3449"
             inkscape:connector-curvature="0" />
          <path
             d="m 119.05204,496.25737 v 1.48384 q -0.65124,-0.3792 -1.31073,-0.56881 -0.65949,-0.1896 -1.3437,-0.1896 -1.03045,0 -1.54155,0.33799 -0.50286,0.32974 -0.50286,1.01396 0,0.61827 0.3792,0.92328 0.37921,0.30501 1.88778,0.59354 l 0.61003,0.11541 q 1.12937,0.21433 1.70642,0.85733 0.58529,0.643 0.58529,1.67345 0,1.36843 -0.97274,2.14333 -0.97274,0.76665 -2.70389,0.76665 -0.68422,0 -1.43439,-0.14838 -0.75016,-0.14015 -1.62398,-0.42867 v -1.56628 q 0.84909,0.43691 1.62398,0.65949 0.7749,0.21433 1.46736,0.21433 1.00572,0 1.55804,-0.40394 0.55232,-0.41218 0.55232,-1.14585 0,-1.05518 -2.01968,-1.45912 l -0.066,-0.0165 -0.56881,-0.11541 q -1.31072,-0.25556 -1.91251,-0.85734 -0.60178,-0.61002 -0.60178,-1.65696 0,-1.32721 0.89855,-2.0444 0.89855,-0.72544 2.56376,-0.72544 0.74192,0 1.42613,0.14014 0.68422,0.1319 1.34371,0.40394 z"
             style="font-style:normal;font-variant:normal;font-weight:normal;font-stretch:normal;font-family:'DejaVu Sans Mono';-inkscape-font-specification:'DejaVu Sans Mono';fill:#ffffff;stroke-width:0.42207119"
             id="path3451"
             inkscape:connector-curvature="0" />
        </g>
        <g
           transform="matrix(0.99122646,0,0,0.99122646,-136.63395,160.26649)"
           id="g3312">
          <path
             sodipodi:nodetypes="ccccccc"
             inkscape:connector-curvature="0"
             id="path3308"
             d="m 233.72857,297.60931 -0.44747,32.65054 18.23988,0.94308 -0.3413,-9.52726 -12.08154,-9.04404 -0.44746,-11.95654 z"
             style="fill:#ffffff;stroke:#ffffff;stroke-width:0.02646136px;stroke-linecap:butt;stroke-linejoin:miter;stroke-opacity:1" />
          <path
             sodipodi:nodetypes="cccccccccccccccccccccccccccccccc"
             id="path3310"
             d="m 233.72857,297.60931 -8.50753,2.75921 -0.22995,7.81771 -3.4112,-0.0117 0.10835,-5.69058 -2.22201,-1.40908 -6.36337,2.10434 -0.19433,6.5128 -1.95103,-0.0542 v -4.60661 l -1.40908,-0.70454 -6.04366,1.66528 -0.35146,4.51304 -1.64778,0.13082 0.18835,-3.69847 -0.72811,-0.51733 -6.19588,1.13966 -0.55887,23.43135 3.24631,-0.0608 0.26171,-8.06449 c 0.51859,-5.70807 5.97623,-3.64806 5.30784,0 l -0.0517,7.96122 5.70614,-0.10683 0.3469,-9.40325 c 0.58879,-5.68843 6.78518,-3.42166 6.02632,0.20109 l -0.067,9.08412 5.47907,-0.10259 0.39694,-9.99755 c 0.70627,-6.35474 8.13903,-4.06135 7.22875,0 l -0.0782,9.8563 5.25456,-0.0984 z"
             style="fill:#ffffff;stroke:#ffffff;stroke-width:0.02682556px;stroke-linecap:butt;stroke-linejoin:miter;stroke-opacity:1"
             inkscape:connector-curvature="0" />
        </g>
        <g
           aria-label="{"
           style="font-style:normal;font-weight:normal;font-size:71.69611359px;line-height:1.25;font-family:sans-serif;letter-spacing:0px;word-spacing:0px;fill:#ffffff;fill-opacity:1;stroke:none;stroke-width:1.79240286"
           id="text3316">
          <path
             d="m 0.63543817,481.50756 q 1.72070673,0 2.93954063,-0.57357 1.218834,-0.64527 2.0074912,-1.57731 0.8603534,-1.00375 1.2188339,-2.22258 0.4301767,-1.29053 0.4301767,-2.58106 v -12.9053 q 0,-2.93955 0.645265,-5.23382 0.6452651,-2.29428 2.2225794,-3.79989 1.577315,-1.57732 4.158375,-2.36598 2.652756,-0.86035 6.524346,-0.86035 h 0.286785 v 5.23382 q -4.086679,0 -5.879082,1.50561 -1.720707,1.43393 -1.720707,5.5923 v 11.0412 q 0,4.73195 -1.29053,7.31301 -1.218833,2.58106 -3.5131091,4.01498 2.2942761,1.43392 3.5131091,4.01498 1.29053,2.58106 1.29053,7.313 v 11.04121 q 0,4.15837 1.720707,5.59229 1.792403,1.50562 5.879082,1.50562 v 5.23382 h -0.286785 q -3.87159,0 -6.524346,-0.78866 -2.58106,-0.78866 -4.158375,-2.36597 -1.5773143,-1.57732 -2.2225794,-3.87159 -0.645265,-2.29428 -0.645265,-5.23382 v -12.9053 q 0,-1.29053 -0.4301767,-2.50936 -0.3584805,-1.29053 -1.2188339,-2.22258 -0.7886572,-1.00375 -2.0074912,-1.57732 -1.2188339,-0.64526 -2.93954063,-0.64526 z"
             style="font-style:normal;font-variant:normal;font-weight:normal;font-stretch:normal;font-family:Ubuntu;-inkscape-font-specification:Ubuntu;fill:#ffffff;stroke-width:1.79240286"
             id="path3454"
             inkscape:connector-curvature="0" />
        </g>
        <g
           aria-label="}"
           style="font-style:normal;font-weight:normal;font-size:71.69611359px;line-height:1.25;font-family:sans-serif;letter-spacing:0px;word-spacing:0px;fill:#ffffff;fill-opacity:1;stroke:none;stroke-width:1.79240286"
           id="text3320">
          <path
             d="m 140.48289,486.66968 q -1.72071,0 -2.93954,0.64526 -1.21883,0.57357 -2.07919,1.57732 -0.78865,0.93205 -1.21883,2.22258 -0.35848,1.21883 -0.35848,2.50936 v 12.9053 q 0,2.93954 -0.64527,5.23382 -0.64526,2.29427 -2.22258,3.87159 -1.57731,1.57731 -4.23007,2.36597 -2.58106,0.78866 -6.45265,0.78866 h -0.28678 v -5.23382 q 4.08668,0 5.80738,-1.50562 1.79241,-1.43392 1.79241,-5.59229 V 495.4166 q 0,-4.73194 1.21883,-7.313 1.29053,-2.58106 3.58481,-4.01498 -2.29428,-1.43392 -3.58481,-4.01498 -1.21883,-2.58106 -1.21883,-7.31301 v -11.0412 q 0,-4.15837 -1.79241,-5.5923 -1.7207,-1.50561 -5.80738,-1.50561 v -5.23382 h 0.28678 q 3.87159,0 6.45265,0.86035 2.65276,0.78866 4.23007,2.36598 1.57732,1.50561 2.22258,3.79989 0.64527,2.29427 0.64527,5.23382 v 12.9053 q 0,1.29053 0.35848,2.58106 0.43018,1.21883 1.21883,2.22258 0.86036,0.93204 2.07919,1.57731 1.21883,0.57357 2.93954,0.57357 z"
             style="font-style:normal;font-variant:normal;font-weight:normal;font-stretch:normal;font-family:Ubuntu;-inkscape-font-specification:Ubuntu;fill:#ffffff;stroke-width:1.79240286"
             id="path3457"
             inkscape:connector-curvature="0" />
        </g>
      </g>
    </g>
  </g>
</svg>
